<svg width="48" height="48" viewBox="0 0 48 48" fill="none" xmlns="http://www.w3.org/2000/svg">
<circle cx="24" cy="24" r="23" fill="white" stroke="white" stroke-width="2"/>
<path d="M31.6361 16.4237C30.212 15.7586 28.6893 15.2752 27.0973 15C26.9018 15.3529 26.6734 15.8274 26.5159 16.205C24.8236 15.9509 23.1469 15.9509 21.4857 16.205C21.3283 15.8274 21.0947 15.3529 20.8974 15C19.3037 15.2752 17.7793 15.7604 16.3552 16.4273C13.4828 20.7602 12.7041 24.9855 13.0934 29.1508C14.9986 30.571 16.8449 31.4337 18.66 31.9983C19.1082 31.3825 19.5079 30.728 19.8522 30.0382C19.1964 29.7895 18.5683 29.4825 17.9748 29.1261C18.1323 29.0097 18.2863 28.8879 18.4351 28.7627C22.055 30.4528 25.9882 30.4528 29.5648 28.7627C29.7154 28.8879 29.8694 29.0097 30.0251 29.1261C29.4299 29.4842 28.8 29.7912 28.1442 30.04C28.4885 30.728 28.8865 31.3843 29.3364 32C31.1533 31.4355 33.0014 30.5728 34.9065 29.1508C35.3633 24.3221 34.1261 20.1356 31.6361 16.4237ZM20.3454 26.5892C19.2587 26.5892 18.3676 25.5765 18.3676 24.3433C18.3676 23.1101 19.2397 22.0957 20.3454 22.0957C21.4511 22.0957 22.3423 23.1083 22.3232 24.3433C22.325 25.5765 21.4511 26.5892 20.3454 26.5892ZM27.6545 26.5892C26.5678 26.5892 25.6767 25.5765 25.6767 24.3433C25.6767 23.1101 26.5488 22.0957 27.6545 22.0957C28.7602 22.0957 29.6514 23.1083 29.6323 24.3433C29.6323 25.5765 28.7602 26.5892 27.6545 26.5892Z" fill="#323B4B"/>
</svg>
