<svg width="48" height="48" viewBox="0 0 48 48" fill="none" xmlns="http://www.w3.org/2000/svg">
<circle cx="24" cy="24" r="23" fill="white" stroke="white" stroke-width="2"/>
<path d="M28.1971 14H19.8129C16.1711 14 14 16.17 14 19.81V28.18C14 31.83 16.1711 34 19.8129 34H28.1871C31.8289 34 34 31.83 34 28.19V19.81C34.01 16.17 31.8389 14 28.1971 14ZM24.005 27.88C21.8639 27.88 20.1231 26.14 20.1231 24C20.1231 21.86 21.8639 20.12 24.005 20.12C26.1461 20.12 27.8869 21.86 27.8869 24C27.8869 26.14 26.1461 27.88 24.005 27.88ZM29.9279 18.88C29.8779 19 29.8079 19.11 29.7178 19.21C29.6178 19.3 29.5077 19.37 29.3877 19.42C29.2676 19.47 29.1375 19.5 29.0075 19.5C28.7373 19.5 28.4872 19.4 28.2971 19.21C28.2071 19.11 28.137 19 28.087 18.88C28.037 18.76 28.007 18.63 28.007 18.5C28.007 18.37 28.037 18.24 28.087 18.12C28.137 17.99 28.2071 17.89 28.2971 17.79C28.5272 17.56 28.8774 17.45 29.1976 17.52C29.2676 17.53 29.3276 17.55 29.3877 17.58C29.4477 17.6 29.5077 17.63 29.5678 17.67C29.6178 17.7 29.6678 17.75 29.7178 17.79C29.8079 17.89 29.8779 17.99 29.9279 18.12C29.978 18.24 30.008 18.37 30.008 18.5C30.008 18.63 29.978 18.76 29.9279 18.88Z" fill="#323B4B"/>
</svg>
