<svg width="48" height="48" viewBox="0 0 48 48" fill="none" xmlns="http://www.w3.org/2000/svg">
<circle cx="24" cy="24" r="23" fill="white" stroke="white" stroke-width="2"/>
<path d="M24.8775 23.7286C24.8775 27.7457 21.6209 31.0023 17.6038 31.0023C13.5866 31.0023 10.3301 27.7457 10.3301 23.7286C10.3301 19.7114 13.5866 16.4549 17.6038 16.4549C21.6209 16.4549 24.8775 19.7114 24.8775 23.7286Z" fill="#323B4B"/>
<path d="M37.0001 23.7282C37.0001 27.0758 36.4574 29.7896 35.7878 29.7896C35.1183 29.7896 34.5756 27.0758 34.5756 23.7282C34.5756 20.3806 35.1183 17.6668 35.7878 17.6668C36.4574 17.6668 37.0001 20.3806 37.0001 23.7282Z" fill="#323B4B"/>
<path d="M29.7272 31.0023C31.7358 31.0023 33.3641 27.7457 33.3641 23.7286C33.3641 19.7114 31.7358 16.4549 29.7272 16.4549C27.7186 16.4549 26.0904 19.7114 26.0904 23.7286C26.0904 27.7457 27.7186 31.0023 29.7272 31.0023Z" fill="#323B4B"/>
</svg>
