<svg width="48" height="48" viewBox="0 0 48 48" fill="none" xmlns="http://www.w3.org/2000/svg">
<circle cx="24" cy="24" r="23" fill="white" stroke="white" stroke-width="2"/>
<path fill-rule="evenodd" clip-rule="evenodd" d="M31.5452 16.3049L30.7545 16.6098L21.488 20.1175L12.2214 23.6252L12.1107 23.7578L12 23.8905V24.0973V24.3041L12.1423 24.4547L12.2846 24.6053L14.7024 25.4891L17.1202 26.3729L17.1788 26.4432L17.2374 26.5136L18.1662 29.4607L19.095 32.4078L19.2513 32.5474L19.4077 32.687L19.6097 32.6865L19.8117 32.6862L19.9741 32.5779L20.1364 32.4698L21.4826 31.3912L22.829 30.3127L23.1044 30.2822L23.3799 30.2517L23.6085 30.384L23.837 30.5163L26.2245 32.218L28.612 33.9197L28.7751 33.9599L28.9382 34L29.1258 33.9048L29.3135 33.8096L29.3845 33.636L29.4556 33.4625L31.2278 25.0894L33 16.7162V16.5462V16.3763L32.8577 16.2177L32.7154 16.059L32.5256 16.0295L32.3358 16L31.5452 16.3049ZM28.4774 19.8582V19.9657L25.9473 22.2707L23.4172 24.5757L21.9143 25.945L20.4116 27.3142L20.2867 27.5671L20.1619 27.8201L20.0073 28.9232L19.8527 30.0263L19.7745 30.1188L19.6963 30.2112L19.5643 30.1927L19.4322 30.1742L18.8829 28.3128L18.3337 26.4515L18.3295 26.2468L18.3253 26.0421L18.4137 25.8744L18.5021 25.7067L18.6406 25.5828L18.779 25.4588L23.5017 22.5942L28.2244 19.7297L28.3509 19.7402L28.4774 19.7508V19.8582Z" fill="#323B4B"/>
</svg>
