<svg width="189" height="189" viewBox="0 0 189 189" fill="none" xmlns="http://www.w3.org/2000/svg">
<rect width="188.053" height="188.053" rx="22" fill="#FDFCFF"/>
<path d="M123.22 153.528L79.9712 133.343" stroke="black" stroke-width="4.69444"/>
<circle cx="130.971" cy="155.419" r="10.9537" transform="rotate(25.019 130.971 155.419)" fill="#D9D9D9"/>
<path d="M38.3943 112.803L81.0718 134.168" stroke="black" stroke-width="4.69444"/>
<circle cx="30.6983" cy="110.699" r="10.9537" transform="rotate(-153.407 30.6983 110.699)" fill="#D9D9D9"/>
<path d="M65.722 46.8879L71.5738 106.869" stroke="black" stroke-width="13"/>
<path d="M85.4719 123.694L109.756 113.759C124.486 107.733 134.604 93.9714 135.963 78.1153L138.138 52.7402" stroke="black" stroke-width="13"/>
<circle cx="78.8881" cy="130.277" r="30.7221" fill="#BFBCBC"/>
<circle cx="78.8881" cy="130.277" r="21.9444" fill="#D9D9D9"/>
<circle cx="143.759" cy="63.7592" r="20.7592" fill="#BFBCBC"/>
<circle cx="143.759" cy="63.7591" r="14.828" fill="#D9D9D9"/>
<circle cx="64" cy="41" r="23" fill="#BFBCBC"/>
<ellipse cx="64" cy="41.5" rx="16" ry="16.5" fill="#D9D9D9"/>
</svg>
