<svg width="189" height="189" viewBox="0 0 189 189" fill="none" xmlns="http://www.w3.org/2000/svg">
<rect width="188.053" height="188.053" rx="22" fill="#FDFCFF"/>
<rect x="38" y="38" width="112.667" height="112.667" rx="9.38889" fill="#D9D9D9"/>
<path d="M85.7266 57.5604H55.9951V88.8567H85.7266V57.5604Z" stroke="black" stroke-width="9.38889"/>
<path d="M124.456 88.8567H131.889V57.5604H102.157V88.8567H109.59" stroke="black" stroke-width="9.38889"/>
<path d="M84.9442 102.158L84.9442 133.454L55.2127 133.454L55.2127 102.158L71.6432 102.158" stroke="black" stroke-width="9.38889"/>
<path d="M102.157 114.676V102.158H111.546" stroke="black" stroke-width="9.38889"/>
<path d="M102.157 136.584V124.848H115.458V113.894" stroke="black" stroke-width="9.38889"/>
<path d="M116.24 102.94H131.106" stroke="black" stroke-width="9.38889"/>
<path d="M131.106 110.764V114.676" stroke="black" stroke-width="9.38889"/>
<path d="M130.324 121.718V135.801H120.152" stroke="black" stroke-width="9.38889"/>
<rect x="66.1664" y="113.111" width="9.38889" height="9.38889" fill="black"/>
<rect x="66.1664" y="67.7318" width="9.38889" height="9.38889" fill="black"/>
<rect x="111.546" y="67.7318" width="9.38889" height="9.38889" fill="black"/>
</svg>
