<svg width="48" height="48" viewBox="0 0 48 48" fill="none" xmlns="http://www.w3.org/2000/svg">
<circle cx="24" cy="24" r="23" fill="white" stroke="white" stroke-width="2"/>
<path d="M34 16.009C33.1294 16.6113 32.1656 17.0719 31.1455 17.3732C30.5979 16.7558 29.8703 16.3181 29.0609 16.1195C28.2516 15.9208 27.3995 15.9708 26.6201 16.2626C25.8406 16.5544 25.1713 17.074 24.7027 17.7511C24.2341 18.4281 23.9888 19.23 24 20.0483V20.9399C22.4024 20.9806 20.8193 20.633 19.3918 19.9283C17.9643 19.2235 16.7367 18.1836 15.8182 16.9008C15.8182 16.9008 12.1818 24.9258 20.3636 28.4925C18.4914 29.739 16.2611 30.364 14 30.2758C22.1818 34.7342 32.1818 30.2758 32.1818 20.0215C32.181 19.7731 32.1566 19.5254 32.1091 19.2814C33.0369 18.3839 33.6917 17.2508 34 16.009Z" fill="#323B4B"/>
</svg>
