<svg width="189" height="189" viewBox="0 0 189 189" fill="none" xmlns="http://www.w3.org/2000/svg">
<rect width="188.053" height="188.053" rx="22" fill="#FDFCFF"/>
<path d="M157.014 48.8908C157.014 42.5285 151.856 37.3708 145.494 37.3708H73.0822C66.7199 37.3708 61.5622 42.5285 61.5622 48.8908V113.074C61.5622 119.436 66.7199 124.594 73.0822 124.594H157.014V48.8908Z" fill="black"/>
<path d="M31.9396 57.1189H145.494C151.856 57.1189 157.014 62.2766 157.014 68.6389V132.822C157.014 139.184 151.856 144.342 145.494 144.342H43.4596C37.0973 144.342 31.9396 139.184 31.9396 132.822V57.1189Z" fill="#D9D9D9"/>
<path d="M31.9396 59.5889V46.4232L46.751 59.5889H31.9396Z" fill="#D9D9D9"/>
<rect x="31.9395" y="37.3711" width="85.577" height="19.7485" rx="9.87427" fill="black"/>
<path d="M114.225 101.554C114.225 94.2829 120.119 88.3884 127.39 88.3884H157.013V114.72H127.39C120.119 114.72 114.225 108.825 114.225 101.554Z" fill="#A2A2A2"/>
<circle cx="129.036" cy="101.554" r="6.58285" fill="#515151"/>
<path d="M70.1165 76.8689H52.1603V95.7701H70.1165V76.8689Z" stroke="#A2A2A2" stroke-width="5.67037"/>
<path d="M93.5067 95.7701H97.9957V76.8689H80.0395V95.7701H84.5286" stroke="#A2A2A2" stroke-width="5.67037"/>
<path d="M69.6437 103.803L69.6437 122.704L51.6876 122.704L51.6876 103.803L61.6107 103.803" stroke="#A2A2A2" stroke-width="5.67037"/>
<path d="M80.0395 111.365V103.804H85.7099" stroke="#A2A2A2" stroke-width="5.67037"/>
<path d="M80.0395 124.596V117.508H88.0725V110.893" stroke="#A2A2A2" stroke-width="5.67037"/>
<path d="M88.5445 104.277H97.5226" stroke="#A2A2A2" stroke-width="5.67037"/>
<path d="M97.523 109.001V111.364" stroke="#A2A2A2" stroke-width="5.67037"/>
<path d="M97.0506 115.617V124.123H90.9077" stroke="#A2A2A2" stroke-width="5.67037"/>
<rect x="58.3031" y="110.421" width="5.67037" height="5.67037" fill="#A2A2A2"/>
<rect x="58.3031" y="83.0107" width="5.67037" height="5.67037" fill="#A2A2A2"/>
<rect x="85.7099" y="83.0107" width="5.67037" height="5.67037" fill="#A2A2A2"/>
</svg>
