<svg width="189" height="189" viewBox="0 0 189 189" fill="none" xmlns="http://www.w3.org/2000/svg">
<rect width="188.053" height="188.053" rx="22" fill="#FDFCFF"/>
<path d="M76.6682 130.131H120.612L119.855 171.045H76.6682V130.131Z" fill="#D9D9D9"/>
<path d="M85.7601 118.009H128.189L120.612 130.131H76.6682L85.7601 118.009Z" fill="#A4A3A3"/>
<path d="M128.189 118.009V158.165L119.855 171.045L119.097 130.131L128.189 118.009Z" fill="#696969"/>
<path d="M76.6682 80.1279H120.612L119.855 121.041H76.6682V80.1279Z" fill="#D9D9D9"/>
<path d="M85.7601 68.0055H128.189L120.612 80.128H76.6682L85.7601 68.0055Z" fill="#A4A3A3"/>
<path d="M128.189 68.0055V108.161L119.855 121.041L119.097 80.128L128.189 68.0055Z" fill="#696969"/>
<path d="M76.6682 30.1226H120.612L119.855 71.0359H76.6682V30.1226Z" fill="#D9D9D9"/>
<path d="M85.7601 18H128.189L120.612 30.1225H76.6682L85.7601 18Z" fill="#A4A3A3"/>
<path d="M128.189 18V58.1557L119.855 71.0358L119.097 30.1225L128.189 18Z" fill="#696969"/>
<path d="M61.0715 129.061C60.4797 128.469 59.5203 128.469 58.9285 129.061L49.2851 138.704C48.6934 139.296 48.6934 140.255 49.2851 140.847C49.8769 141.439 50.8363 141.439 51.4281 140.847L60 132.275L68.5719 140.847C69.1636 141.439 70.1231 141.439 70.7149 140.847C71.3066 140.255 71.3066 139.296 70.7149 138.704L61.0715 129.061ZM61.5153 163.469L61.5153 130.132L58.4847 130.132L58.4847 163.469L61.5153 163.469Z" fill="black"/>
<path d="M61.0715 79.0556C60.4797 78.4638 59.5203 78.4638 58.9285 79.0556L49.2851 88.6989C48.6934 89.2907 48.6934 90.2502 49.2851 90.8419C49.8769 91.4337 50.8363 91.4337 51.4281 90.8419L60 82.27L68.5719 90.8419C69.1636 91.4337 70.1231 91.4337 70.7149 90.8419C71.3066 90.2502 71.3066 89.2907 70.7149 88.6989L61.0715 79.0556ZM61.5153 113.464L61.5153 80.1271L58.4847 80.1271L58.4847 113.464L61.5153 113.464Z" fill="black"/>
<path d="M61.0715 29.0503C60.4797 28.4586 59.5203 28.4586 58.9285 29.0503L49.2851 38.6937C48.6934 39.2855 48.6934 40.2449 49.2851 40.8367C49.8769 41.4284 50.8363 41.4284 51.4281 40.8367L60 32.2648L68.5719 40.8367C69.1636 41.4284 70.1231 41.4284 70.7149 40.8367C71.3066 40.2449 71.3066 39.2855 70.7149 38.6937L61.0715 29.0503ZM61.5153 63.4586L61.5153 30.1218L58.4847 30.1218L58.4847 63.4586L61.5153 63.4586Z" fill="black"/>
</svg>
