<svg width="189" height="189" viewBox="0 0 189 189" fill="none" xmlns="http://www.w3.org/2000/svg">
<rect width="188.053" height="188.053" rx="22" fill="#FDFCFF"/>
<path d="M85.8519 90.5463L49.0787 55.338" stroke="black" stroke-width="4.69444"/>
<path d="M83.5046 95.2407H36.5602" stroke="black" stroke-width="4.69444"/>
<path d="M86.6343 103.065L50.6435 131.231" stroke="black" stroke-width="4.69444"/>
<path d="M93.6759 105.412V150.792" stroke="black" stroke-width="4.69444"/>
<path d="M138.273 132.014L101.5 103.065" stroke="black" stroke-width="4.69444"/>
<path d="M151.574 95.2407H103.847" stroke="black" stroke-width="4.69444"/>
<path d="M93.6759 88.9815V36.5602" stroke="black" stroke-width="4.69444"/>
<path d="M99.1528 91.3288L136.708 55.338" stroke="black" stroke-width="4.69444"/>
<circle cx="43.6019" cy="49.8612" r="15.6481" fill="#D9D9D9"/>
<circle cx="145.315" cy="140.62" r="15.6481" fill="#D9D9D9"/>
<circle cx="93.6759" cy="27.9537" r="10.9537" fill="#D9D9D9"/>
<circle cx="140.62" cy="51.4259" r="10.9537" fill="#D9D9D9"/>
<circle cx="159.398" cy="93.6759" r="10.9537" fill="#D9D9D9"/>
<circle cx="93.6759" cy="159.398" r="10.9537" fill="#D9D9D9"/>
<circle cx="46.7315" cy="135.926" r="10.9537" fill="#D9D9D9"/>
<circle cx="27.9537" cy="95.2407" r="10.9537" fill="#D9D9D9"/>
<rect x="59.25" y="62.3796" width="68.8519" height="62.5926" rx="3.12963" fill="#D9D9D9"/>
</svg>
