<svg width="654" height="656" viewBox="0 0 654 656" fill="none" xmlns="http://www.w3.org/2000/svg">
<path d="M601.961 60.9275C599.638 59.7659 597.315 58.8367 595.224 57.6751C579.426 50.4733 563.164 44.2006 546.902 38.1604C542.488 36.7665 538.306 35.3726 533.892 33.7463C519.256 28.8677 504.62 24.4536 489.519 20.7365C483.711 19.3426 477.671 17.9487 471.631 16.3225C458.156 13.0701 444.217 10.5146 430.511 8.65605C423.541 7.49446 416.339 6.56516 409.602 5.86821C396.592 4.24199 383.35 3.08038 370.108 2.15111C362.674 1.68648 355.239 1.22184 347.341 0.989524C340.603 0.757206 334.099 0.757263 327.129 0.757263C320.857 0.757263 314.816 0.757206 308.311 0.989524C300.877 1.22184 292.978 1.45416 285.544 2.15111C272.302 3.08038 259.06 4.24199 246.05 5.86821C238.848 6.79748 231.879 7.49446 225.142 8.65605C211.435 10.9792 197.496 13.5347 184.021 16.3225C177.981 17.7164 172.173 19.1103 166.133 20.7365C151.264 24.4536 136.396 28.8677 121.76 33.7463C117.346 35.1402 113.164 36.5341 108.518 38.1604C92.0235 43.9683 75.9936 50.2409 60.196 57.4428C57.8728 58.6044 55.5496 59.5336 53.2265 60.6952C35.1057 69.0586 17.2171 78.3513 0.0256348 88.1087C0.0256348 108.088 0.954991 127.37 2.58121 146.653C2.81353 149.905 3.04577 152.693 3.5104 155.945C5.13662 172.905 7.45989 189.632 10.7123 206.126C11.6416 211.237 12.8032 216.116 13.5002 221.459C16.288 236.095 20.2374 250.499 23.9545 264.67C25.5807 270.943 27.6716 277.68 29.7624 283.953C33.7118 296.962 38.1257 309.507 43.0044 322.053C45.7922 329.254 48.8124 336.456 51.6002 343.426C67.1655 329.951 83.6601 317.406 100.852 306.255C117.578 295.336 135.235 285.811 153.588 277.448C171.476 269.084 190.062 262.115 209.344 256.771C223.051 252.822 237.454 249.337 251.858 246.782C257.434 245.852 262.777 245.155 268.353 244.226C286.473 241.671 304.594 240.277 323.412 240.277C324.574 240.277 325.735 240.277 326.897 240.277C328.291 240.277 330.149 240.277 331.543 240.277C350.361 240.509 368.714 241.903 386.602 244.691C392.178 245.62 397.754 246.317 403.329 247.479C417.733 250.034 431.904 253.519 445.611 257.468C464.894 263.276 483.247 270.246 501.367 278.377C519.721 286.74 537.377 296.498 554.103 307.417C571.295 318.568 587.79 331.113 603.123 344.82C606.375 337.618 609.163 330.184 611.951 322.75C616.597 310.669 620.779 297.892 624.96 285.579C608.466 272.569 591.507 260.488 573.386 249.569C556.194 238.883 538.074 229.59 519.256 221.459C501.135 213.328 482.317 206.591 463.035 200.783C456.065 198.692 448.864 196.833 441.662 194.975C429.581 192.187 417.268 189.399 404.723 187.541C394.037 185.914 383.118 184.288 372.199 183.127C363.371 182.197 354.078 181.733 344.785 181.5C338.745 181.268 332.705 181.268 326.432 181.268C320.624 181.268 315.281 181.268 309.473 181.5C300.18 181.733 291.12 182.43 282.059 183.127C271.14 184.056 260.222 185.45 249.535 187.076C237.222 189.167 225.142 191.722 213.061 194.51C205.859 196.136 198.657 198.227 191.456 200.318C172.173 206.126 153.355 213.096 135.235 220.762C116.417 228.893 98.2961 238.418 81.1046 248.64C81.1046 248.408 80.8723 247.711 80.8723 247.479C75.2967 227.964 71.1149 207.985 67.6302 187.541C67.6302 187.076 67.3978 186.611 67.3978 186.147C63.913 165.703 61.5898 145.027 60.4282 123.886C79.246 114.361 98.5284 105.997 118.275 98.563C118.508 98.563 118.508 98.3307 118.74 98.3307C138.022 91.1289 158.002 85.0885 177.981 79.9775H178.213C197.496 75.0989 217.01 71.1495 236.99 68.1294C237.222 68.1294 237.919 68.1294 238.384 67.8971C257.434 65.1093 276.716 63.0184 296.231 62.0891C296.695 62.0891 297.625 62.0891 298.322 62.0891C307.614 61.8568 317.139 61.6245 326.432 61.6245C336.189 61.6245 346.411 61.8568 355.704 62.0891C356.169 62.0891 357.098 62.0891 357.795 62.0891C377.31 63.2507 396.592 64.8769 415.642 67.8971C416.107 67.8971 416.571 67.8971 417.036 68.1294C437.015 71.3818 456.53 75.3312 475.812 80.2099H476.045C496.256 85.3209 516.003 91.8258 535.286 99.0276C535.518 99.0276 535.75 99.0276 535.75 99.26C555.73 106.694 575.012 115.058 593.597 124.583C613.112 134.34 632.162 145.259 650.515 157.339C650.748 154.087 650.98 150.602 651.445 147.582C653.071 128.532 654 109.25 654 89.7349C638.435 78.816 620.546 69.7556 601.961 60.9275Z" fill="white"/>
<path d="M477.895 332.042C459.775 323.678 440.957 316.709 421.442 311.598C404.715 306.952 387.059 303.467 369.635 301.608C366.151 301.376 362.666 300.679 359.646 300.447C349.192 299.517 338.737 299.053 328.051 299.053C317.596 299.053 307.607 299.285 297.617 300.214C294.132 300.447 290.88 300.679 287.627 301.376C269.739 303.467 252.547 306.487 235.588 311.133C216.073 316.244 197.023 323.214 179.135 331.577C161.014 339.941 143.823 349.698 127.328 360.849C110.601 372.465 94.8035 385.01 80.1675 399.182C85.9754 410.101 92.2481 420.787 98.9853 431.474C103.399 438.443 107.581 445.181 112.227 451.918C119.429 462.605 126.631 472.826 134.298 483.048C138.944 489.089 143.59 495.129 148.469 500.937C157.065 511.624 166.125 521.613 175.185 531.835C179.6 536.714 184.014 541.36 188.66 546.007C200.973 530.441 216.073 516.967 233.033 506.048C251.153 494.432 271.597 486.069 293.435 481.655C305.051 479.331 316.667 478.17 329.212 478.17C341.99 478.17 354.07 479.564 365.686 481.887C387.524 486.533 407.736 494.897 425.856 506.745C411.685 521.149 396.817 534.623 381.251 547.633C380.787 548.097 380.09 548.562 379.625 549.027C377.999 550.421 376.14 551.815 374.514 552.976C371.029 555.764 367.545 558.552 363.828 561.34C363.595 561.572 363.131 561.804 362.898 562.036C359.646 564.592 356.393 566.915 352.909 569.471C351.747 570.4 350.353 571.329 349.192 572.026C346.636 573.885 344.08 575.743 341.525 577.369C337.576 580.157 333.626 582.713 329.677 585.501C314.112 575.046 298.779 563.895 284.143 552.047C262.537 557.622 244.295 569.006 226.871 581.783C228.497 583.177 228.386 583.177 230.245 584.571C230.942 585.268 231.639 585.965 232.8 586.894C245.81 597.813 259.285 608.5 273.224 618.49C275.547 620.116 277.87 621.742 280.193 623.368C296.223 634.984 312.95 645.439 330.374 655.428C338.737 650.55 347.101 645.439 355.232 640.328C363.363 635.217 371.494 629.641 379.393 624.065C381.948 622.439 384.504 620.348 387.059 618.49C400.534 608.732 413.776 598.278 426.553 587.359C428.644 585.501 430.735 583.642 432.826 581.783C434.684 580.157 436.543 578.531 438.169 576.905C449.088 567.147 459.775 556.925 470.229 546.471C475.108 541.592 479.754 536.714 484.4 531.603C493.228 521.846 502.057 511.623 510.42 501.634C515.299 495.594 520.177 489.321 525.056 482.816C325.03 350.627 193.306 460.746 193.306 460.746C192.842 460.281 192.377 459.584 191.912 459.12C180.064 444.251 168.913 428.686 158.226 412.656C174.256 401.04 191.912 391.283 210.265 383.616C229.315 375.253 249.062 368.98 269.506 364.799C285.536 361.546 302.031 359.688 318.758 358.991C322.243 358.991 325.727 358.758 329.212 358.758C333.162 358.758 336.879 358.758 340.828 358.991C357.555 359.455 374.05 361.546 389.847 365.031C410.523 369.445 430.27 375.718 449.088 384.081C467.441 392.212 484.865 401.97 500.895 413.353C517.39 424.969 532.49 438.211 546.197 452.847C550.843 445.878 555.49 438.676 559.671 431.474C565.944 421.02 571.984 410.798 577.792 400.111C562.459 385.94 546.894 372.93 530.167 361.546C513.44 350.163 496.016 340.405 477.895 332.042Z" fill="white"/>
</svg>
